<?xml version="1.0" encoding="UTF-8"?>
<svg id="Layer_1" data-name="Layer 1" xmlns="http://www.w3.org/2000/svg" viewBox="0 0 500 194.35">
  <defs>
    <style>
      .cls-1 {
        fill: #619195;
      }
    </style>
  </defs>
  <path class="cls-1" d="m32.17,68.42c0-11.09,8.3-23.91,23.33-23.91,9.95,0,15.03,5.37,15.03,13.96,0,11.09-8.23,23.98-23.05,23.98-10.09,0-15.32-5.3-15.32-14.03Zm15.6,13.1c5.65,0,10.88-19.33,10.88-27.99,0-4.8-1.15-8.09-3.72-8.09-5.58,0-10.88,19.25-10.88,27.77,0,4.94,1.15,8.3,3.72,8.3Z"/>
  <path class="cls-1" d="m97.16,75.37c0-2,.43-4.44,1.22-7.16l3.22-11.67c.5-1.65.86-3.36.86-4.65,0-1.72-.57-2.86-2.36-2.86-3.44,0-8.52,6.66-10.45,14.32l-4.22,18.18h-11.67l5.3-23.05c.5-2.08.86-3.87.86-5.3,0-2.29-.79-3.72-2.93-4.22l.07-.29c5.37-.21,11.81-1.86,16.68-4.15h.29l-2.72,11.74c2.93-5.87,9.23-11.74,15.25-11.74,5.3,0,7.59,2.58,7.59,7.01,0,1.5-.29,3.44-.79,5.3l-3.36,11.95c-.79,2.86-1.5,5.73-1.5,7.66,0,1.57.5,2.58,1.86,2.58,2.51,0,5.44-4.44,7.52-8.95l.57.21c-2.51,5.8-5.51,12.1-13.67,12.1-5.44,0-7.59-2.58-7.59-7.01Z"/>
  <path class="cls-1" d="m122.01,68.5c0-13.1,9.02-23.98,22.12-23.98,8.38,0,12.53,3.87,12.53,7.73,0,7.09-7.16,10.81-18.54,12.88l-3.58.64c-.07,1.15-.14,2.22-.14,3.22,0,6.73,2.94,10.31,7.01,10.31,4.72,0,8.52-2.65,12.24-7.44l.43.43c-5.44,7.66-10.67,10.16-17.61,10.16-8.23,0-14.46-5.15-14.46-13.96Zm15.46-4.29c6.3-1,9.02-7.3,9.02-13.74,0-2.65-.79-5.01-2.79-5.01-4.37,0-7.95,10.95-9.02,19.25l2.79-.5Z"/>
  <path class="cls-1" d="m256.66,128.2l.44.29c-9.37,12.73-19.03,18.88-27.81,18.88-9.51,0-18.74-5.27-26.79-13.47-12.44,9.95-23.86,13.47-33.52,13.47-19.17,0-28.25-10.98-28.25-24.15,0-21.22,19.61-33.52,37.32-36.15-1.02-4.68-1.46-9.37-1.46-13.61,0-19.61,16.39-30.59,34.4-30.59,12.29,0,17.71,4.68,17.71,10.83,0,11.86-15.37,21.22-24.3,25.03,2.34,6.59,6.15,14.93,10.98,22.98,1.17-17.71,11.86-35.71,26.49-35.71s21.08,9.37,21.08,20.64c0,12.59-8.78,24.88-22.39,24.88-10.69,0-17.27-7.61-17.27-15.66,0-4.68,2.34-11.71,10.68-13.91,1.76,3.95,4.68,6.15,9.08,6.15,6.15,0,9.66-4.54,9.66-9.95,0-4.98-3.07-9.95-11.27-9.95-12.29,0-22.83,12.73-25.03,35.13,8.78,14.05,20.93,26.79,34.25,26.79,2.05,0,4.39-.59,6-1.9Zm-88.85-19.32c0,18.59,15.37,34.4,34.25,24.59-11.42-11.86-20.35-29.42-23.86-45.81-7.61,4.1-10.39,13.47-10.39,21.22Zm42.89-64.84c-8.05,0-10.25,7.9-10.25,14.05s1.32,12.88,3.81,20.2c8.64-4.98,14.78-15.37,14.78-24.74,0-5.42-2.49-9.51-8.34-9.51Z"/>
  <path class="cls-1" d="m281.34,98.5c0-1.59.43-3.61.87-5.54l3.18-13.77h-3.03l.14-.72c4.86-.05,9.87-3.18,12.71-8.48h.19l-1.93,8.48h5.73l-.14.72h-5.78l-3.23,13.82c-.58,2.41-1.06,4.57-1.06,6.12,0,1.25.53,2.07,1.64,2.07,2.21,0,4.19-3.13,5.63-6.12l.34.14c-1.68,3.9-3.85,8.09-9.87,8.09-4,0-5.39-1.88-5.39-4.82Z"/>
  <path class="cls-1" d="m305.71,72.11c0-1.49-.48-2.55-1.93-2.89l.05-.14c3.56-.19,7.95-1.25,11.22-2.84h.14l-4.43,19.31c2.02-3.85,6.26-7.71,10.21-7.71,3.56,0,5.1,1.73,5.1,4.72,0,1.01-.24,2.31-.58,3.56l-2.22,8.04c-.53,1.93-1.01,3.85-1.01,5.15,0,1.06.34,1.73,1.2,1.73,1.73,0,3.66-2.99,5.11-6.02l.38.14c-1.69,3.9-3.76,8.14-9.25,8.14-3.61,0-5.1-1.73-5.1-4.72,0-1.35.34-2.99.82-4.82l2.22-7.85c.34-1.11.53-2.26.53-3.13,0-1.16-.38-1.93-1.54-1.93-2.21,0-5.54,4.19-6.93,9.2l-2.89,12.67h-7.85l6.21-27.06c.34-1.4.53-2.55.53-3.56Z"/>
  <path class="cls-1" d="m331.33,93.97c0-8.81,6.07-16.13,14.88-16.13,5.63,0,8.43,2.6,8.43,5.2,0,4.77-4.82,7.27-12.47,8.67l-2.41.43c-.05.77-.1,1.49-.1,2.17,0,4.53,1.97,6.93,4.72,6.93,3.18,0,5.73-1.78,8.23-5.01l.29.29c-3.66,5.15-7.17,6.84-11.85,6.84-5.54,0-9.73-3.47-9.73-9.39Zm10.4-2.89c4.24-.67,6.07-4.91,6.07-9.25,0-1.78-.53-3.37-1.88-3.37-2.94,0-5.35,7.37-6.07,12.95l1.88-.34Z"/>
  <path class="cls-1" d="m315.27,143.37c0-1.65.29-3.44,1.5-8.09l3.01-10.74c.43-1.65.86-3.36.86-4.72,0-1.72-.64-2.79-2-2.79-3.29,0-8.59,6.94-10.45,14.89l.07-.36-4.37,17.97h-11.67l5.94-24.98c.43-1.65.72-3.15.72-4.44,0-1.86-.5-3.08-2.08-3.08-3.01,0-8.09,6.51-9.88,14.46l.29-1.5-4.51,19.54h-11.67l5.3-23.05c.5-2.08.86-3.87.86-5.3,0-2.29-.79-3.72-2.93-4.22l.07-.29c5.37-.21,11.81-1.86,16.68-4.15h.29l-2.58,11.24c3.01-5.66,8.95-11.24,14.39-11.24s7.59,2.65,7.59,7.16c0,1.29-.21,2.72-.57,4.29,3.01-5.73,9.31-11.45,14.82-11.45,5.22,0,7.37,2.72,7.37,6.94,0,1.65-.29,3.44-.79,5.37l-3.08,11.02c-1.36,4.94-1.79,6.87-1.79,8.59,0,1.57.5,2.58,1.79,2.58,2.58,0,5.44-4.44,7.52-8.95l.64.21c-2.5,5.8-5.58,12.1-13.74,12.1-5.3,0-7.59-2.51-7.59-7.02Z"/>
  <path class="cls-1" d="m339.62,138.36c0-11.17,7.95-25.7,23.62-25.7,3.01,0,5.51,1,7.87,2.36,2.86-.72,5.58-1.57,8.02-2.51h.21l-6.37,24.19c-.79,2.93-1.5,5.8-1.5,7.73,0,1.57.57,2.58,1.93,2.58,2.5,0,5.3-4.37,7.37-8.95l.57.21c-2.51,5.8-5.44,12.1-13.6,12.1-5.37,0-7.59-2.58-7.59-7.16v-.79c-2.58,5.51-6.51,8.09-10.59,8.09-6.8,0-9.95-5.44-9.95-12.17Zm14.67,8.95c2.15,0,4.94-4.08,6.73-10.16l.43-1.5,4.65-17.39c.14-2.65-1.07-4.58-2.86-4.58-5.23,0-11.45,17.68-11.45,28.13,0,3.51.86,5.51,2.51,5.51Z"/>
  <path class="cls-1" d="m406.97,143.37c0-2,.43-4.44,1.22-7.16l3.22-11.67c.5-1.65.86-3.36.86-4.65,0-1.72-.57-2.86-2.36-2.86-3.44,0-8.52,6.66-10.45,14.32l-4.22,18.18h-11.67l5.3-23.05c.5-2.08.86-3.87.86-5.3,0-2.29-.79-3.72-2.93-4.22l.07-.29c5.37-.21,11.81-1.86,16.68-4.15h.29l-2.72,11.74c2.93-5.87,9.23-11.74,15.25-11.74,5.3,0,7.59,2.58,7.59,7.01,0,1.5-.29,3.44-.79,5.3l-3.36,11.95c-.79,2.86-1.5,5.73-1.5,7.66,0,1.57.5,2.58,1.86,2.58,2.5,0,5.44-4.44,7.52-8.95l.57.21c-2.5,5.8-5.51,12.1-13.67,12.1-5.44,0-7.59-2.58-7.59-7.02Z"/>
  <path class="cls-1" d="m421.22,162.06c0-2.43,1.5-5.15,4.94-5.15s4.08,2.22,4.58,3.87c.29,1,.64,1.86,1.36,1.86,2.29,0,5.51-3.58,12.17-12.24l-8.52-23.62c-2-5.66-3.65-8.8-7.23-9.81v-.29c5.08-.14,10.38-1.57,14.17-3.79h.21l9.45,26.56h.36c4.29-5.94,7.59-10.74,7.44-14.39-.07-1.93-1.22-2.86-2.5-3.72-1.5-1-2.93-2.15-2.93-4.72,0-2.43,2-4.08,4.72-4.08,3.87,0,4.87,2.51,4.87,5.3,0,6.94-6.23,16.32-14.1,26.84l-5.3,6.73c-6.87,8.95-12.46,15.46-18.25,15.46-3.51,0-5.44-2.36-5.44-4.8Z"/>
  <circle class="cls-1" cx="461.61" cy="100.03" r="2.71"/>
  <path class="cls-1" d="m451.78,100.03c0-.75.13-1.48.35-2.15h-90.96v4.31h90.96c-.23-.68-.35-1.4-.35-2.15Z"/>
  <circle class="cls-1" cx="34.88" cy="100.03" r="2.71"/>
  <path class="cls-1" d="m44.71,100.03c0,.75-.13,1.48-.35,2.15h80.78v-4.31H44.36c.23.68.35,1.4.35,2.15Z"/>
</svg>